<svg width="512" height="368" viewBox="0 0 512 368" fill="none" xmlns="http://www.w3.org/2000/svg">
<path fill-rule="evenodd" clip-rule="evenodd" d="M460.205 1.2739C449.677 4.6119 449.353 4.91989 315.705 138.449L184.205 269.833L124.703 210.416C69.4327 155.225 64.7217 150.775 58.4767 147.852C42.6027 140.424 25.7217 142.771 13.1277 154.157C3.13573 163.19 -1.80327 177.563 0.600728 190.611C3.06173 203.968 1.51572 202.228 84.4847 285.001C157.063 357.408 161.556 361.693 167.7 364.372C175.48 367.764 186.248 368.798 193.451 366.845C205.624 363.543 200.41 368.485 356.272 212.529C517.738 50.9639 508.516 60.8589 510.97 46.5349C514.366 26.7059 501.926 7.3969 481.824 1.2949C476.162 -0.423101 465.59 -0.433097 460.205 1.2739Z" fill="#3BF3A6"/>
</svg>
