<svg width="28" height="40" viewBox="0 0 28 40" fill="none" xmlns="http://www.w3.org/2000/svg">
<path fill-rule="evenodd" clip-rule="evenodd" d="M0 3V33C0 33.7956 0.31607 34.5587 0.878679 35.1213C1.44129 35.6839 2.20435 36 3 36H16V32.465C15.2374 32.0247 14.6414 31.3451 14.3045 30.5316C13.9675 29.7181 13.9084 28.8162 14.1363 27.9656C14.3642 27.1151 14.8664 26.3635 15.565 25.8275C16.2635 25.2914 17.1195 25.0009 18 25.0009C18.8805 25.0009 19.7365 25.2914 20.435 25.8275C21.1336 26.3635 21.6358 27.1151 21.8637 27.9656C22.0916 28.8162 22.0325 29.7181 21.6955 30.5316C21.3586 31.3451 20.7626 32.0247 20 32.465V36H25C25.7956 36 26.5587 35.6839 27.1213 35.1213C27.6839 34.5587 28 33.7956 28 33V3C28 2.20435 27.6839 1.44129 27.1213 0.87868C26.5587 0.316071 25.7956 0 25 0H3C2.20435 0 1.44129 0.316071 0.878679 0.87868C0.31607 1.44129 0 2.20435 0 3V3ZM18 31C18.5304 31 19.0391 30.7893 19.4142 30.4142C19.7893 30.0391 20 29.5304 20 29C20 28.4696 19.7893 27.9609 19.4142 27.5858C19.0391 27.2107 18.5304 27 18 27C17.4696 27 16.9609 27.2107 16.5858 27.5858C16.2107 27.9609 16 28.4696 16 29C16 29.5304 16.2107 30.0391 16.5858 30.4142C16.9609 30.7893 17.4696 31 18 31V31ZM8 7C8 6.73478 8.10536 6.48043 8.29289 6.29289C8.48043 6.10536 8.73478 6 9 6H19C19.2652 6 19.5196 6.10536 19.7071 6.29289C19.8946 6.48043 20 6.73478 20 7C20 7.26522 19.8946 7.51957 19.7071 7.70711C19.5196 7.89464 19.2652 8 19 8H9C8.73478 8 8.48043 7.89464 8.29289 7.70711C8.10536 7.51957 8 7.26522 8 7ZM5 12C4.73478 12 4.48043 12.1054 4.29289 12.2929C4.10536 12.4804 4 12.7348 4 13C4 13.2652 4.10536 13.5196 4.29289 13.7071C4.48043 13.8946 4.73478 14 5 14H23C23.2652 14 23.5196 13.8946 23.7071 13.7071C23.8946 13.5196 24 13.2652 24 13C24 12.7348 23.8946 12.4804 23.7071 12.2929C23.5196 12.1054 23.2652 12 23 12H5ZM4 17C4 16.7348 4.10536 16.4804 4.29289 16.2929C4.48043 16.1054 4.73478 16 5 16H23C23.2652 16 23.5196 16.1054 23.7071 16.2929C23.8946 16.4804 24 16.7348 24 17C24 17.2652 23.8946 17.5196 23.7071 17.7071C23.5196 17.8946 23.2652 18 23 18H5C4.73478 18 4.48043 17.8946 4.29289 17.7071C4.10536 17.5196 4 17.2652 4 17ZM5 20C4.73478 20 4.48043 20.1054 4.29289 20.2929C4.10536 20.4804 4 20.7348 4 21C4 21.2652 4.10536 21.5196 4.29289 21.7071C4.48043 21.8946 4.73478 22 5 22H23C23.2652 22 23.5196 21.8946 23.7071 21.7071C23.8946 21.5196 24 21.2652 24 21C24 20.7348 23.8946 20.4804 23.7071 20.2929C23.5196 20.1054 23.2652 20 23 20H5Z" fill="black"/>
<path d="M16 40V36H20V40L18 38.5L16 40Z" fill="black"/>
</svg>
